<svg width="98" height="78" viewBox="0 0 98 78" fill="none" xmlns="http://www.w3.org/2000/svg">
<path fill-rule="evenodd" clip-rule="evenodd" d="M53.0862 1.08711C52.7343 0.941548 52.3318 0.987495 52.0221 1.20859C51.7123 1.42969 51.5393 1.79452 51.5647 2.1732C51.8221 6.01693 52.912 9.35375 56.0977 11.8341C58.895 14.012 63.1792 15.4225 69.5593 16.1308C66.7149 18.8953 62.6977 21.0101 58.5099 21.0901C56.5227 21.1279 54.0755 20.6925 51.6212 20.1533C50.8425 19.9822 50.0564 19.7988 49.2894 19.6198L49.2892 19.6198C47.7092 19.2512 46.2103 18.9015 45.0243 18.7173C44.5622 18.645 44.0716 18.5435 43.5474 18.435C42.1574 18.1474 40.5317 17.8111 38.5762 17.8411C37.6625 17.8546 36.371 17.9612 35.0388 18.4666C35.0658 17.2658 34.7022 16.124 33.8837 15.2247C33.0418 14.2996 31.8334 13.7574 30.5823 13.7305L30.5788 13.7304L30.5753 13.7304C29.6575 13.7164 28.7799 14.0994 28.1528 14.7034C27.5022 15.33 27.1572 16.1559 27.1411 17.038L27.141 17.039L27.141 17.04C27.1225 18.1698 27.4837 19.2489 28.2779 20.1221C28.94 20.85 29.9116 21.449 30.9786 21.6279C29.9019 23.1191 29.5014 24.7035 29.4692 26.106C29.4668 26.21 29.4648 26.3144 29.4629 26.419L29.4629 26.4192C29.4511 27.0454 29.4392 27.6824 29.3258 28.3202C29.1964 29.0484 28.951 29.6583 28.5124 30.1125C27.841 30.8047 27.1192 31.0936 26.1052 31.0321C25.9777 31.0243 25.6104 30.9202 25.1037 30.6547C23.5349 29.8328 21.5142 29.6434 19.8447 30.6862L5.46596 39.6683L6.89466 42.2935L6.89549 42.295C7.14896 42.7572 7.49203 43.1648 7.90481 43.4942C8.31683 43.8229 8.79012 44.0671 9.29736 44.2127C9.66636 44.3198 10.0488 44.374 10.4332 44.3736L10.4356 44.3736L10.438 44.3736C11.1089 44.3701 11.7682 44.199 12.3556 43.8761L12.3902 43.857L20.3047 38.7345C21.015 38.2747 21.9701 38.2781 22.761 38.7619C25.2047 40.2567 27.8137 41.3804 30.4648 41.3733L30.4658 41.3733L30.4669 41.3733C32.7614 41.3627 35.3143 40.4566 37.4618 39.4827C39.242 38.6754 40.8531 37.7683 41.918 37.1687C42.1506 37.0377 42.3572 36.9214 42.5337 36.8241L42.5344 36.8237L42.5352 36.8233C46.4068 34.6804 50.1456 33.7376 54.56 33.7258C59.0526 33.7138 63.7944 34.6107 69.139 36.5749C69.4056 36.6801 69.672 36.7857 69.9385 36.8912C70.443 37.0909 71.158 37.374 72.0148 37.7133L74.0277 38.5105C75.3489 39.0337 76.8256 39.6185 78.3104 40.2065C82.9077 42.027 87.5936 43.882 87.9721 44.0289L88.8946 44.3869C89.2516 43.7007 89.6099 43.0297 89.8301 42.2854C90.0274 41.6186 90.2262 40.611 89.9683 39.6315C89.3775 37.3883 87.8081 35.8628 85.5189 35.0509C85.1351 34.9278 84.7506 34.8067 84.367 34.6826C82.5403 34.0915 80.7151 33.484 78.9253 32.7889C78.0272 32.4401 77.3578 32.1495 77.036 31.9506C75.351 30.9092 75.0618 29.4694 75.2932 28.0872C75.5309 26.6669 76.5197 25.8411 77.7226 25.8411C80.1992 25.8614 82.2136 25.4484 83.6846 24.6343C85.163 23.816 86.1258 22.6903 86.7642 21.5213C88.0185 18.9299 87.1499 15.9343 85.6133 13.843C84.5209 12.3562 82.2163 9.9419 78.2339 9.43951C77.3042 9.31637 75.8716 9.36955 74.8883 9.40737C73.7993 9.44926 73.8337 9.27291 72.806 8.91185L53.0862 1.08711ZM87.8374 40.1881C87.9368 40.5658 87.8826 41.0704 87.7419 41.5785C85.2712 40.6021 78.9729 38.1079 74.5698 36.3642L74.556 36.3587C73.0091 35.7462 71.4703 35.1059 69.9127 34.5207C64.3671 32.4814 59.3601 31.519 54.5541 31.5319C49.7766 31.5447 45.6703 32.578 41.465 34.9056C41.2701 35.0131 41.0494 35.1373 40.8061 35.2742C39.7371 35.8757 38.2309 36.7232 36.5488 37.4861C34.4621 38.4324 32.2646 39.1706 30.4584 39.1794C28.4146 39.1847 26.229 38.3085 23.914 36.8924C22.4688 36.0084 20.5942 35.9305 19.1042 36.8949L11.2601 41.9719C11.0039 42.1064 10.7188 42.1778 10.4287 42.1797C10.2543 42.1797 10.0807 42.1549 9.91329 42.1062L9.91107 42.1056L9.90884 42.105C9.6805 42.0396 9.46749 41.9298 9.28214 41.7819C9.09718 41.6343 8.94343 41.4518 8.82972 41.2449L8.82897 41.2435L8.38784 40.4329L21.0153 32.5448C21.8606 32.0168 23.0197 32.042 24.0781 32.5964C24.6586 32.9005 25.3649 33.1852 25.9713 33.2219C27.6252 33.3222 28.9762 32.7926 30.0975 31.636L30.0981 31.6355L30.0986 31.6349C30.9516 30.7526 31.3229 29.6713 31.495 28.7026C31.6413 27.8798 31.6556 27.0519 31.6663 26.4336C31.668 26.3359 31.6696 26.2433 31.6716 26.1569L31.6716 26.1565C31.7063 24.6429 32.3193 22.754 34.5586 21.1818C35.8977 20.2421 37.4621 20.0518 38.6096 20.0348L38.6101 20.0347C40.3089 20.0087 41.5631 20.2694 42.8698 20.541C43.4494 20.6614 44.0394 20.7841 44.6831 20.8848L44.6843 20.885C45.7891 21.0565 47.1462 21.3734 48.6684 21.7289C49.4545 21.9125 50.2846 22.1063 51.1466 22.2957C53.6065 22.8362 56.2792 23.3268 58.552 23.2837L58.5521 23.2837C64.3064 23.1737 69.5881 19.8078 72.7111 15.9343C72.9664 15.6177 73.0252 15.1866 72.8639 14.8136C72.7026 14.4407 72.3476 14.187 71.9412 14.1542C64.4454 13.5491 60.0405 12.1191 57.4546 10.1057C55.3959 8.50282 54.3874 6.44569 53.9625 3.82516L71.9962 10.9246C73.3308 11.3916 73.4736 11.554 74.8883 11.554C75.9022 11.554 76.9448 11.4853 77.9539 11.6157C81.0908 12.0103 82.9202 13.8933 83.8345 15.1372C85.5312 17.4458 85.5312 19.3331 84.8293 20.4723L84.8291 20.4728C84.3584 21.3347 83.6732 22.1306 82.6145 22.7166C81.5484 23.3066 80.0327 23.7229 77.8438 23.7048L77.8429 23.7048C75.2354 23.7048 73.5345 25.6107 73.1786 27.7809C72.8638 29.6998 73.5001 32.4642 75.8973 33.8288C76.4121 34.1218 77.2391 34.4889 78.125 34.8329C79.9543 35.5433 81.8193 36.165 83.6863 36.7691C84.0565 36.8889 84.4271 37.0076 84.7983 37.1243L84.7985 37.1244C86.4966 37.7316 87.4597 38.7541 87.8374 40.1881ZM29.6843 16.2804C29.9582 16.0166 30.3196 15.9017 30.6939 15.9315C31.2918 15.9813 31.8485 16.2553 32.2514 16.698C32.6854 17.1749 32.835 17.7604 32.8367 18.3884C32.8383 18.9942 32.3465 19.4867 31.7381 19.4883C31.0366 19.4902 30.3801 19.1654 29.9106 18.6492C29.5239 18.2241 29.3337 17.6988 29.3437 17.077C29.3498 16.7567 29.4667 16.49 29.6843 16.2804Z" fill="#002654"/>
<path d="M0.5 55.5744C0.5 52.8193 2.7424 50.5859 5.50855 50.5859V71.533H18.9064V76.5204H0.5V55.5744Z" fill="#002654"/>
<path d="M22.4951 50.5859L22.4951 54.6614H27.473V50.5859L22.4951 50.5859Z" fill="#002654"/>
<path d="M22.6109 76.5204L22.6109 57.3783H27.473L27.473 76.5204H22.6109Z" fill="#002654"/>
<path fill-rule="evenodd" clip-rule="evenodd" d="M31.7563 76.4762V50.5859H36.7568V59.3606C38.8001 57.7738 41.4934 56.8096 44.445 56.8096C51.5082 56.8096 56.0086 61.0416 56.0086 66.8918C56.0086 72.7421 51.7582 76.9741 44.445 76.9741C41.1637 76.9741 38.4989 76.0653 36.5581 74.5603C36.1255 75.6809 35.0343 76.4762 33.7565 76.4762H31.7563ZM44.2575 72.6176C48.9221 72.6176 51.6332 70.2142 51.6332 66.8918C51.6332 63.5695 48.7627 61.1661 44.2575 61.1661C40.184 61.1661 36.8818 63.7296 36.8818 66.8918C36.8818 70.0541 39.5929 72.6176 44.2575 72.6176Z" fill="#002654"/>
<path fill-rule="evenodd" clip-rule="evenodd" d="M70.738 56.8104C68.977 56.8104 67.3774 57.0694 65.9408 57.5894C64.506 58.0996 63.2772 58.8148 62.2563 59.7361C61.2445 60.6479 60.4592 61.7275 59.901 62.974C59.351 64.2124 59.0764 65.5572 59.0764 67.0063C59.0764 68.5644 59.3504 69.9643 59.9008 71.2038C60.4512 72.4429 61.2509 73.4918 62.2993 74.349C63.3474 75.2061 64.6331 75.8607 66.1537 76.3148L66.1544 76.315C67.6841 76.76 69.2085 76.9887 71.1565 76.9887C71.2744 76.9887 71.3884 76.9889 71.499 76.989C72.8154 76.9907 73.6472 76.9917 74.9827 76.7441C76.4988 76.4629 77.7004 75.9953 79.0756 75.246V70.9406C78.5715 71.2607 78.0407 71.5173 77.4828 71.7329L77.4823 71.7331C77.3246 71.7949 77.1891 71.8517 77.0608 71.9055C76.7164 72.0499 76.4237 72.1726 75.8927 72.3126L75.7607 72.3458L75.6554 72.3724C75.1204 72.5079 74.9197 72.5588 74.1791 72.6636C73.3398 72.7732 72.4831 72.828 71.609 72.828C70.3734 72.828 69.5283 72.7247 68.6421 72.5339C67.7628 72.3426 67.0247 72.075 66.4255 71.7329C65.8259 71.3906 65.352 70.9783 65.001 70.497C64.6846 70.0524 64.4496 69.5664 64.2958 69.0384H81.7661V67.6544C81.7661 65.9054 81.4972 64.3553 80.9564 63.0062C80.425 61.6589 79.6703 60.5228 78.6917 59.6001C77.7221 58.6778 76.5568 57.9847 75.1978 57.52C73.848 57.0464 72.361 56.8104 70.738 56.8104ZM67.9591 61.5019C68.7277 61.2227 69.6445 61.0814 70.7122 61.0814C71.8505 61.0814 72.7933 61.2139 73.5443 61.4749L73.5455 61.4753C74.3025 61.7293 74.9089 62.054 75.3689 62.4465C75.8312 62.841 76.1644 63.282 76.372 63.7692L76.3725 63.7704L76.373 63.7715C76.5725 64.2133 76.6978 64.6417 76.7504 65.0569H64.29C64.3838 64.6967 64.5569 64.3046 64.8123 63.88C65.0971 63.4064 65.4967 62.9613 66.0137 62.5455C66.5364 62.1319 67.1841 61.7835 67.9591 61.5019Z" fill="#002654"/>
<path d="M97.3942 61.663V57.0434C95.878 57.0045 92.3105 57.3881 90.1011 59.564V57.2931H85.239V76.5206H87.483C89.1355 76.5206 90.4751 75.179 90.4751 73.5241V71.5264L90.5912 67.0807C90.6663 64.2028 92.9471 61.8711 95.8187 61.7367L97.3942 61.663Z" fill="#002654"/>
</svg>
